Coordinates
version=1
nRows=32
nColumns=12
inDegrees=yes

Units are S.I. units (second, meters, Newtons, ...)
Angles are in degrees

endheader
time	SC_y	SC_z	SC_x	AC_y	AC_z	AC_x	GH_y	GH_z	GH_yy	EL_x	PS_y
       0.0              -13.11          31.06          48.48          63.93          6.488          8.822         -1.707          -5.42          46.35          102.0          69.63
   0.03236              -13.11          31.05          48.47          63.93          6.486          8.823         -1.716         -5.416          46.36          102.0          69.63
   0.06473              -13.11          31.05          48.47          63.93          6.484          8.824         -1.726         -5.412          46.38          102.0          69.64
   0.09709              -13.11          31.04          48.46          63.94          6.481          8.825         -1.737         -5.408          46.39          102.0          69.64
    0.1295              -13.11          31.04          48.45          63.94          6.479          8.827         -1.748         -5.404          46.41          102.0          69.65
    0.1618              -13.12          31.03          48.44          63.94          6.476          8.828          -1.76           -5.4          46.43          102.0          69.65
    0.1942              -13.12          31.02          48.43          63.94          6.473          8.829         -1.773         -5.395          46.45          101.9          69.66
    0.2265              -13.12          31.01          48.42          63.94           6.47          8.831         -1.786          -5.39          46.47          101.9          69.67
    0.2589              -13.12          31.01          48.41          63.94          6.467          8.833         -1.801         -5.384          46.49          101.9          69.67
    0.2913              -13.13           31.0           48.4          63.94          6.463          8.834         -1.817         -5.378          46.51          101.9          69.68
    0.3236              -13.13          30.99          48.39          63.94          6.459          8.836         -1.833         -5.371          46.53          101.9          69.69
     0.356              -13.13          30.98          48.37          63.94          6.455          8.838         -1.852         -5.365          46.56          101.8           69.7
    0.3884              -13.14          30.97          48.36          63.94          6.451           8.84         -1.871         -5.357          46.59          101.8          69.71
    0.4207              -13.14          30.96          48.34          63.94          6.446          8.843         -1.892         -5.349          46.62          101.8          69.72
    0.4531              -13.15          30.94          48.32          63.94          6.441          8.845         -1.915          -5.34          46.65          101.7          69.73
    0.4854              -13.15          30.93          48.31          63.95          6.435          8.848          -1.94         -5.331          46.69          101.7          69.74
    0.5178              -13.16          30.92          48.29          63.95          6.429          8.851         -1.967         -5.321          46.73          101.7          69.75
    0.5502              -13.16           30.9          48.26          63.95          6.422          8.854         -1.996         -5.309          46.77          101.6          69.77
    0.5825              -13.17          30.88          48.24          63.95          6.415          8.858         -2.028         -5.297          46.82          101.6          69.78
    0.6149              -13.17          30.86          48.21          63.95          6.407          8.862         -2.064         -5.284          46.87          101.5           69.8
    0.6473              -13.18          30.84          48.18          63.95          6.398          8.866         -2.102         -5.269          46.92          101.5          69.82
    0.6796              -13.19          30.82          48.15          63.96          6.389          8.871         -2.145         -5.253          46.99          101.4          69.84
     0.712               -13.2          30.79          48.12          63.96          6.378          8.876         -2.191         -5.235          47.05          101.3          69.86
    0.7444              -13.21          30.76          48.08          63.96          6.367          8.882         -2.243         -5.215          47.13          101.3          69.89
    0.7767              -13.22          30.73          48.03          63.96          6.353          8.888         -2.301         -5.193          47.21          101.2          69.92
    0.8091              -13.23           30.7          47.99          63.97          6.339          8.895         -2.365         -5.168          47.31          101.1          69.95
    0.8414              -13.25          30.66          47.93          63.97          6.323          8.903         -2.438         -5.141          47.41          101.0          69.98
    0.8738              -13.26          30.61          47.87          63.98          6.304          8.912         -2.519          -5.11          47.53          100.9          70.02
    0.9062              -13.28          30.56           47.8          63.98          6.283          8.923          -2.61         -5.075          47.66          100.8          70.07
    0.9385               -13.3           30.5          47.72          63.99           6.26          8.934         -2.715         -5.035          47.81          100.6          70.12
    0.9709              -13.32          30.44          47.63          63.99          6.233          8.947         -2.833          -4.99          47.98          100.4          70.18
     1.003              -13.35          30.36          47.53           64.0          6.202          8.963          -2.97         -4.938          48.18          100.3          70.24
